<mxfile host="Electron" modified="2023-05-11T02:15:44.001Z" agent="Mozilla/5.0 (Windows NT 10.0; Win64; x64) AppleWebKit/537.36 (KHTML, like Gecko) draw.io/21.2.1 Chrome/112.0.5615.87 Electron/24.1.2 Safari/537.36" etag="RzwOCxYgjflE04EsV2k7" version="21.2.1" type="device">
  <diagram name="第 1 页" id="s_tYn-QXVGn0XvgGoQwk">
    <mxGraphModel dx="1260" dy="789" grid="1" gridSize="10" guides="1" tooltips="1" connect="1" arrows="1" fold="1" page="1" pageScale="1" pageWidth="827" pageHeight="1169" math="0" shadow="0">
      <root>
        <mxCell id="0" />
        <mxCell id="1" parent="0" />
        <mxCell id="H0SPe2Ds6hh0N3k31fIf-1" value="" style="rounded=1;whiteSpace=wrap;html=1;strokeWidth=1;sketch=1;curveFitting=1;jiggle=2;shadow=1;" vertex="1" parent="1">
          <mxGeometry x="200" y="200" width="160" height="180" as="geometry" />
        </mxCell>
        <mxCell id="H0SPe2Ds6hh0N3k31fIf-6" style="edgeStyle=orthogonalEdgeStyle;rounded=0;orthogonalLoop=1;jettySize=auto;html=1;strokeWidth=3;sketch=1;curveFitting=1;jiggle=2;shadow=0;exitX=0;exitY=0;exitDx=90;exitDy=30;exitPerimeter=0;entryX=-0.024;entryY=0.312;entryDx=0;entryDy=0;entryPerimeter=0;" edge="1" parent="1" source="H0SPe2Ds6hh0N3k31fIf-2" target="H0SPe2Ds6hh0N3k31fIf-3">
          <mxGeometry relative="1" as="geometry">
            <mxPoint x="300" y="260" as="sourcePoint" />
            <mxPoint x="437" y="260" as="targetPoint" />
            <Array as="points" />
          </mxGeometry>
        </mxCell>
        <mxCell id="H0SPe2Ds6hh0N3k31fIf-7" value="&lt;b&gt;&lt;font color=&quot;#333333&quot; style=&quot;font-size: 16px;&quot;&gt;跨域请求&lt;/font&gt;&lt;/b&gt;" style="edgeLabel;html=1;align=center;verticalAlign=middle;resizable=0;points=[];" vertex="1" connectable="0" parent="H0SPe2Ds6hh0N3k31fIf-6">
          <mxGeometry x="-0.1901" y="4" relative="1" as="geometry">
            <mxPoint x="13" y="3" as="offset" />
          </mxGeometry>
        </mxCell>
        <mxCell id="H0SPe2Ds6hh0N3k31fIf-2" value="&lt;b&gt;&lt;font color=&quot;#333333&quot; style=&quot;font-size: 18px;&quot;&gt;网页&lt;/font&gt;&lt;/b&gt;" style="shape=note;whiteSpace=wrap;html=1;backgroundOutline=1;darkOpacity=0.05;strokeColor=#b85450;fillColor=#f8cecc;sketch=1;curveFitting=1;jiggle=2;shadow=1;" vertex="1" parent="1">
          <mxGeometry x="220" y="226" width="90" height="117.5" as="geometry" />
        </mxCell>
        <mxCell id="H0SPe2Ds6hh0N3k31fIf-9" style="edgeStyle=orthogonalEdgeStyle;rounded=0;orthogonalLoop=1;jettySize=auto;html=1;exitX=-0.024;exitY=0.681;exitDx=0;exitDy=0;exitPerimeter=0;strokeWidth=2;shadow=0;sketch=1;curveFitting=1;jiggle=2;" edge="1" parent="1" source="H0SPe2Ds6hh0N3k31fIf-3">
          <mxGeometry relative="1" as="geometry">
            <mxPoint x="360" y="323" as="targetPoint" />
          </mxGeometry>
        </mxCell>
        <mxCell id="H0SPe2Ds6hh0N3k31fIf-10" value="&lt;font size=&quot;1&quot; color=&quot;#333333&quot;&gt;&lt;b style=&quot;font-size: 16px;&quot;&gt;响应&lt;/b&gt;&lt;/font&gt;" style="edgeLabel;html=1;align=center;verticalAlign=middle;resizable=0;points=[];" vertex="1" connectable="0" parent="H0SPe2Ds6hh0N3k31fIf-9">
          <mxGeometry x="0.194" y="-4" relative="1" as="geometry">
            <mxPoint x="11" y="2" as="offset" />
          </mxGeometry>
        </mxCell>
        <mxCell id="H0SPe2Ds6hh0N3k31fIf-3" value="" style="rounded=1;whiteSpace=wrap;html=1;strokeWidth=1;sketch=1;curveFitting=1;jiggle=2;shadow=1;" vertex="1" parent="1">
          <mxGeometry x="440" y="200" width="160" height="180" as="geometry" />
        </mxCell>
        <mxCell id="H0SPe2Ds6hh0N3k31fIf-4" value="&lt;font size=&quot;1&quot; color=&quot;#333333&quot;&gt;&lt;b style=&quot;font-size: 20px;&quot;&gt;浏览器&lt;/b&gt;&lt;/font&gt;" style="text;html=1;strokeColor=none;fillColor=none;align=center;verticalAlign=middle;whiteSpace=wrap;rounded=0;" vertex="1" parent="1">
          <mxGeometry x="240" y="160" width="80" height="30" as="geometry" />
        </mxCell>
        <mxCell id="H0SPe2Ds6hh0N3k31fIf-5" value="&lt;font size=&quot;1&quot; color=&quot;#333333&quot;&gt;&lt;b style=&quot;font-size: 20px;&quot;&gt;接口服务器&lt;/b&gt;&lt;/font&gt;" style="text;html=1;strokeColor=none;fillColor=none;align=center;verticalAlign=middle;whiteSpace=wrap;rounded=0;" vertex="1" parent="1">
          <mxGeometry x="455" y="160" width="130" height="30" as="geometry" />
        </mxCell>
        <mxCell id="H0SPe2Ds6hh0N3k31fIf-8" value="" style="fontColor=#0066CC;verticalAlign=top;verticalLabelPosition=bottom;labelPosition=center;align=center;html=1;outlineConnect=0;fillColor=#CCCCCC;strokeColor=#6881B3;gradientColor=none;gradientDirection=north;strokeWidth=2;shape=mxgraph.networks.server;sketch=1;curveFitting=1;jiggle=2;" vertex="1" parent="1">
          <mxGeometry x="472.5" y="232.5" width="95" height="115" as="geometry" />
        </mxCell>
        <mxCell id="H0SPe2Ds6hh0N3k31fIf-11" value="" style="endArrow=classic;html=1;rounded=0;entryX=1.008;entryY=0.798;entryDx=0;entryDy=0;entryPerimeter=0;strokeWidth=2;sketch=1;curveFitting=1;jiggle=2;strokeColor=#FF0000;dashed=1;" edge="1" parent="1">
          <mxGeometry width="50" height="50" relative="1" as="geometry">
            <mxPoint x="360" y="323" as="sourcePoint" />
            <mxPoint x="310.72" y="322.7650000000001" as="targetPoint" />
          </mxGeometry>
        </mxCell>
        <mxCell id="H0SPe2Ds6hh0N3k31fIf-13" value="" style="shape=cross;whiteSpace=wrap;html=1;fillColor=#FF0000;strokeColor=none;rotation=-45;" vertex="1" parent="1">
          <mxGeometry x="328" y="311.46" width="20.36" height="20.36" as="geometry" />
        </mxCell>
        <mxCell id="H0SPe2Ds6hh0N3k31fIf-14" value="&lt;b&gt;&lt;font color=&quot;#333333&quot; style=&quot;font-size: 16px;&quot;&gt;相应的结果被浏览器拦截，网页无法获取跨域响应的数据&lt;/font&gt;&lt;/b&gt;" style="text;html=1;strokeColor=none;fillColor=none;align=center;verticalAlign=middle;whiteSpace=wrap;rounded=0;" vertex="1" parent="1">
          <mxGeometry x="200" y="400" width="402.5" height="30" as="geometry" />
        </mxCell>
        <mxCell id="H0SPe2Ds6hh0N3k31fIf-28" value="" style="rounded=1;whiteSpace=wrap;html=1;strokeWidth=1;sketch=1;curveFitting=1;jiggle=2;shadow=1;" vertex="1" parent="1">
          <mxGeometry x="730" y="200" width="160" height="180" as="geometry" />
        </mxCell>
        <mxCell id="H0SPe2Ds6hh0N3k31fIf-29" style="edgeStyle=orthogonalEdgeStyle;rounded=0;orthogonalLoop=1;jettySize=auto;html=1;strokeWidth=3;sketch=1;curveFitting=1;jiggle=2;shadow=0;exitX=0;exitY=0;exitDx=90;exitDy=30;exitPerimeter=0;entryX=-0.024;entryY=0.312;entryDx=0;entryDy=0;entryPerimeter=0;" edge="1" parent="1" source="H0SPe2Ds6hh0N3k31fIf-31" target="H0SPe2Ds6hh0N3k31fIf-34">
          <mxGeometry relative="1" as="geometry">
            <mxPoint x="830" y="260" as="sourcePoint" />
            <mxPoint x="967" y="260" as="targetPoint" />
            <Array as="points" />
          </mxGeometry>
        </mxCell>
        <mxCell id="H0SPe2Ds6hh0N3k31fIf-30" value="&lt;b&gt;&lt;font color=&quot;#333333&quot; style=&quot;font-size: 16px;&quot;&gt;跨域请求&lt;/font&gt;&lt;/b&gt;" style="edgeLabel;html=1;align=center;verticalAlign=middle;resizable=0;points=[];" vertex="1" connectable="0" parent="H0SPe2Ds6hh0N3k31fIf-29">
          <mxGeometry x="-0.1901" y="4" relative="1" as="geometry">
            <mxPoint x="13" y="3" as="offset" />
          </mxGeometry>
        </mxCell>
        <mxCell id="H0SPe2Ds6hh0N3k31fIf-31" value="&lt;b&gt;&lt;font color=&quot;#333333&quot; style=&quot;font-size: 18px;&quot;&gt;网页&lt;/font&gt;&lt;/b&gt;" style="shape=note;whiteSpace=wrap;html=1;backgroundOutline=1;darkOpacity=0.05;strokeColor=#b85450;fillColor=#f8cecc;sketch=1;curveFitting=1;jiggle=2;shadow=1;" vertex="1" parent="1">
          <mxGeometry x="750" y="226" width="90" height="117.5" as="geometry" />
        </mxCell>
        <mxCell id="H0SPe2Ds6hh0N3k31fIf-32" style="edgeStyle=orthogonalEdgeStyle;rounded=0;orthogonalLoop=1;jettySize=auto;html=1;exitX=-0.024;exitY=0.681;exitDx=0;exitDy=0;exitPerimeter=0;strokeWidth=2;shadow=0;sketch=1;curveFitting=1;jiggle=2;" edge="1" parent="1" source="H0SPe2Ds6hh0N3k31fIf-34">
          <mxGeometry relative="1" as="geometry">
            <mxPoint x="890" y="323" as="targetPoint" />
          </mxGeometry>
        </mxCell>
        <mxCell id="H0SPe2Ds6hh0N3k31fIf-33" value="&lt;font size=&quot;1&quot; color=&quot;#333333&quot;&gt;&lt;b style=&quot;font-size: 16px;&quot;&gt;响应&lt;/b&gt;&lt;/font&gt;" style="edgeLabel;html=1;align=center;verticalAlign=middle;resizable=0;points=[];" vertex="1" connectable="0" parent="H0SPe2Ds6hh0N3k31fIf-32">
          <mxGeometry x="0.194" y="-4" relative="1" as="geometry">
            <mxPoint x="11" y="2" as="offset" />
          </mxGeometry>
        </mxCell>
        <mxCell id="H0SPe2Ds6hh0N3k31fIf-34" value="" style="rounded=1;whiteSpace=wrap;html=1;strokeWidth=1;sketch=1;curveFitting=1;jiggle=2;shadow=1;" vertex="1" parent="1">
          <mxGeometry x="970" y="200" width="160" height="180" as="geometry" />
        </mxCell>
        <mxCell id="H0SPe2Ds6hh0N3k31fIf-35" value="&lt;font size=&quot;1&quot; color=&quot;#333333&quot;&gt;&lt;b style=&quot;font-size: 20px;&quot;&gt;浏览器&lt;/b&gt;&lt;/font&gt;" style="text;html=1;strokeColor=none;fillColor=none;align=center;verticalAlign=middle;whiteSpace=wrap;rounded=0;" vertex="1" parent="1">
          <mxGeometry x="770" y="160" width="80" height="30" as="geometry" />
        </mxCell>
        <mxCell id="H0SPe2Ds6hh0N3k31fIf-36" value="&lt;font size=&quot;1&quot; color=&quot;#333333&quot;&gt;&lt;b style=&quot;font-size: 20px;&quot;&gt;接口服务器&lt;/b&gt;&lt;/font&gt;" style="text;html=1;strokeColor=none;fillColor=none;align=center;verticalAlign=middle;whiteSpace=wrap;rounded=0;" vertex="1" parent="1">
          <mxGeometry x="985" y="160" width="130" height="30" as="geometry" />
        </mxCell>
        <mxCell id="H0SPe2Ds6hh0N3k31fIf-37" value="" style="fontColor=#0066CC;verticalAlign=top;verticalLabelPosition=bottom;labelPosition=center;align=center;html=1;outlineConnect=0;fillColor=#CCCCCC;strokeColor=#6881B3;gradientColor=none;gradientDirection=north;strokeWidth=2;shape=mxgraph.networks.server;sketch=1;curveFitting=1;jiggle=2;" vertex="1" parent="1">
          <mxGeometry x="1002.5" y="216.82" width="95" height="115" as="geometry" />
        </mxCell>
        <mxCell id="H0SPe2Ds6hh0N3k31fIf-38" value="" style="endArrow=classic;html=1;rounded=0;entryX=1.008;entryY=0.798;entryDx=0;entryDy=0;entryPerimeter=0;strokeWidth=2;sketch=1;curveFitting=1;jiggle=2;strokeColor=#00CC00;dashed=1;" edge="1" parent="1">
          <mxGeometry width="50" height="50" relative="1" as="geometry">
            <mxPoint x="890" y="323" as="sourcePoint" />
            <mxPoint x="840.72" y="322.7650000000001" as="targetPoint" />
          </mxGeometry>
        </mxCell>
        <mxCell id="H0SPe2Ds6hh0N3k31fIf-40" value="&lt;b&gt;&lt;font color=&quot;#333333&quot; style=&quot;font-size: 16px;&quot;&gt;在服务器端，配置cors相关的响应头，从而解除浏览器端的跨域访问限制&lt;/font&gt;&lt;/b&gt;" style="text;html=1;strokeColor=none;fillColor=none;align=left;verticalAlign=middle;whiteSpace=wrap;rounded=0;" vertex="1" parent="1">
          <mxGeometry x="730" y="400" width="402.5" height="50" as="geometry" />
        </mxCell>
        <mxCell id="H0SPe2Ds6hh0N3k31fIf-41" value="&lt;b style=&quot;font-size: 16px;&quot;&gt;&lt;font style=&quot;font-size: 16px;&quot; color=&quot;#333333&quot;&gt;配置&lt;br&gt;Access-Control-Allow-*&lt;br&gt;相关的响应头&lt;/font&gt;&lt;/b&gt;" style="text;html=1;strokeColor=none;fillColor=none;align=left;verticalAlign=middle;whiteSpace=wrap;rounded=0;" vertex="1" parent="1">
          <mxGeometry x="1140" y="200" width="200" height="70" as="geometry" />
        </mxCell>
      </root>
    </mxGraphModel>
  </diagram>
</mxfile>
